<svg width="28" height="28" viewBox="0 0 28 28" fill="none" xmlns="http://www.w3.org/2000/svg">
<path d="M19.8333 15.6333V19.1333C19.8333 23.8 17.9666 25.6667 13.2999 25.6667H8.86658C4.19992 25.6667 2.33325 23.8 2.33325 19.1333V14.7C2.33325 10.0333 4.19992 8.16666 8.86658 8.16666H12.3666" stroke="#1F1F1F" stroke-width="1.5" stroke-linecap="round" stroke-linejoin="round"/>
<path d="M19.8329 15.6333H16.0995C13.2995 15.6333 12.3662 14.7 12.3662 11.9V8.16666L19.8329 15.6333Z" stroke="#1F1F1F" stroke-width="1.5" stroke-linecap="round" stroke-linejoin="round"/>
<path d="M13.533 2.33333H18.1996" stroke="#1F1F1F" stroke-width="1.5" stroke-linecap="round" stroke-linejoin="round"/>
<path d="M8.16675 5.83333C8.16675 3.89667 9.73008 2.33333 11.6667 2.33333H14.7234" stroke="#1F1F1F" stroke-width="1.5" stroke-linecap="round" stroke-linejoin="round"/>
<path d="M25.6672 9.33334V16.555C25.6672 18.3633 24.1972 19.8333 22.3889 19.8333" stroke="#1F1F1F" stroke-width="1.5" stroke-linecap="round" stroke-linejoin="round"/>
<path d="M25.6667 9.33333H22.1667C19.5417 9.33333 18.6667 8.45833 18.6667 5.83333V2.33333L25.6667 9.33333Z" stroke="#1F1F1F" stroke-width="1.5" stroke-linecap="round" stroke-linejoin="round"/>
</svg>
