<svg width="32" height="32" viewBox="0 0 32 32" fill="none" xmlns="http://www.w3.org/2000/svg">
<path d="M26.6667 18.6667C28.1394 18.6667 29.3333 17.4728 29.3333 16C29.3333 14.5272 28.1394 13.3333 26.6667 13.3333C25.1939 13.3333 24 14.5272 24 16C24 17.4728 25.1939 18.6667 26.6667 18.6667Z" stroke="#1F1F1F" stroke-width="1.5" stroke-linecap="round" stroke-linejoin="round"/>
<path d="M26.6667 8.00001C28.1394 8.00001 29.3333 6.8061 29.3333 5.33334C29.3333 3.86058 28.1394 2.66667 26.6667 2.66667C25.1939 2.66667 24 3.86058 24 5.33334C24 6.8061 25.1939 8.00001 26.6667 8.00001Z" stroke="#1F1F1F" stroke-width="1.5" stroke-linecap="round" stroke-linejoin="round"/>
<path d="M26.6667 29.3333C28.1394 29.3333 29.3333 28.1394 29.3333 26.6667C29.3333 25.1939 28.1394 24 26.6667 24C25.1939 24 24 25.1939 24 26.6667C24 28.1394 25.1939 29.3333 26.6667 29.3333Z" stroke="#1F1F1F" stroke-width="1.5" stroke-linecap="round" stroke-linejoin="round"/>
<path d="M5.33341 18.6667C6.80617 18.6667 8.00008 17.4728 8.00008 16C8.00008 14.5272 6.80617 13.3333 5.33341 13.3333C3.86066 13.3333 2.66675 14.5272 2.66675 16C2.66675 17.4728 3.86066 18.6667 5.33341 18.6667Z" stroke="#1F1F1F" stroke-width="1.5" stroke-linecap="round" stroke-linejoin="round"/>
<path d="M8 16H24" stroke="#1F1F1F" stroke-width="1.5" stroke-linecap="round" stroke-linejoin="round"/>
<path d="M24.0001 5.33333H18.6667C16.0001 5.33333 14.6667 6.66666 14.6667 9.33333V22.6667C14.6667 25.3333 16.0001 26.6667 18.6667 26.6667H24.0001" stroke="#1F1F1F" stroke-width="1.5" stroke-linecap="round" stroke-linejoin="round"/>
</svg>
