<svg width="32" height="32" viewBox="0 0 32 32" fill="none" xmlns="http://www.w3.org/2000/svg">
<path d="M7.99992 2.66667H23.9999C25.4666 2.66667 26.6666 3.86667 26.6666 5.33334V11.0933H5.33325V5.33334C5.33325 3.86667 6.53325 2.66667 7.99992 2.66667Z" stroke="#1F1F1F" stroke-width="1.5" stroke-linecap="round" stroke-linejoin="round"/>
<path d="M5.33325 11.0934V15.84C5.33325 17.28 6.10662 18.6133 7.37329 19.32L11.3199 21.5466C12.1599 22.0133 12.6799 22.9067 12.6799 23.8667V26.6667C12.6799 28.1333 13.8799 29.3333 15.3466 29.3333H16.6799C18.1466 29.3333 19.3466 28.1333 19.3466 26.6667V23.8667C19.3466 22.9067 19.8666 22.0133 20.7066 21.5466L24.6532 19.32C25.9066 18.6133 26.6933 17.28 26.6933 15.84V11.0934H5.33325Z" stroke="#1F1F1F" stroke-width="1.5" stroke-linecap="round" stroke-linejoin="round"/>
<path d="M7.99992 2.66667H23.9999C25.4666 2.66667 26.6666 3.86667 26.6666 5.33334V11.0933H5.33325V5.33334C5.33325 3.86667 6.53325 2.66667 7.99992 2.66667Z" stroke="#1F1F1F" stroke-width="1.5" stroke-linecap="round" stroke-linejoin="round"/>
<path d="M5.33325 15.84V11.0934H26.6933V15.84C26.6933 17.28 25.9066 18.6133 24.6532 19.32L20.7066 21.5466C19.8666 22.0133 19.3466 22.9067 19.3466 23.8667V26.6667C19.3333 27.3333 19.3333 24 19.3333 24L12.6799 23.8667C12.6799 22.9067 12.1599 22.0133 11.3199 21.5466L7.37329 19.32C6.10662 18.6133 5.33325 17.28 5.33325 15.84Z" stroke="#1F1F1F" stroke-width="1.5" stroke-linecap="round" stroke-linejoin="round"/>
</svg>
