<svg width="28" height="28" viewBox="0 0 28 28" fill="none" xmlns="http://www.w3.org/2000/svg">
<path d="M22.1667 18.6667V7.58333C22.1667 6.3 21.1167 5.25 19.8334 5.25H13.4167" stroke="#1F1F1F" stroke-width="1.5" stroke-linecap="round" stroke-linejoin="round"/>
<path d="M16.3333 2.33333L12.8333 5.25L16.3333 8.16666" stroke="#1F1F1F" stroke-width="1.5" stroke-linecap="round" stroke-linejoin="round"/>
<path d="M22.1667 25.6667C24.0997 25.6667 25.6667 24.0997 25.6667 22.1667C25.6667 20.2337 24.0997 18.6667 22.1667 18.6667C20.2338 18.6667 18.6667 20.2337 18.6667 22.1667C18.6667 24.0997 20.2338 25.6667 22.1667 25.6667Z" stroke="#1F1F1F" stroke-width="1.5" stroke-linecap="round" stroke-linejoin="round"/>
<path d="M5.83325 9.33333V20.4167C5.83325 21.7 6.88325 22.75 8.16659 22.75H14.5833" stroke="#1F1F1F" stroke-width="1.5" stroke-linecap="round" stroke-linejoin="round"/>
<path d="M11.6667 25.6667L15.1667 22.75L11.6667 19.8333" stroke="#1F1F1F" stroke-width="1.5" stroke-linecap="round" stroke-linejoin="round"/>
<path d="M5.83325 9.33333C7.76625 9.33333 9.33325 7.76632 9.33325 5.83333C9.33325 3.90033 7.76625 2.33333 5.83325 2.33333C3.90026 2.33333 2.33325 3.90033 2.33325 5.83333C2.33325 7.76632 3.90026 9.33333 5.83325 9.33333Z" stroke="#1F1F1F" stroke-width="1.5" stroke-linecap="round" stroke-linejoin="round"/>
</svg>
