<svg width="32" height="32" viewBox="0 0 32 32" fill="none" xmlns="http://www.w3.org/2000/svg">
<path d="M14.3334 30H17.6934C18.9734 30 19.8 29.0933 19.56 27.9866L19.0134 25.5734H13.0134L12.4667 27.9866C12.2267 29.0266 13.1334 30 14.3334 30Z" stroke="#1F1F1F" stroke-width="1.5" stroke-linecap="round" stroke-linejoin="round"/>
<path d="M19.0134 25.5601L21.3201 23.5067C22.6134 22.36 22.6667 21.56 21.6401 20.2666L17.5734 15.1067C16.7201 14.0267 15.3201 14.0267 14.4667 15.1067L10.4001 20.2666C9.37341 21.56 9.3734 22.4 10.7201 23.5067L13.0267 25.5601" stroke="#1F1F1F" stroke-width="1.5" stroke-linecap="round" stroke-linejoin="round"/>
<path d="M16.0134 14.8267V18.2" stroke="#1F1F1F" stroke-width="1.5" stroke-linecap="round" stroke-linejoin="round"/>
<path d="M14.8667 6.92003L13.8267 5.87999C13.2 5.25332 13.2 4.24005 13.8267 3.61339L14.8667 2.57335C15.4934 1.94668 16.5067 1.94668 17.1334 2.57335L18.1733 3.61339C18.8 4.24005 18.8 5.25332 18.1733 5.87999L17.1334 6.92003C16.5067 7.54669 15.4934 7.54669 14.8667 6.92003Z" stroke="#1F1F1F" stroke-width="1.5" stroke-linecap="round" stroke-linejoin="round"/>
<path d="M25.9332 13.08H27.3999C28.2799 13.08 28.9999 13.8 28.9999 14.68V16.1467C28.9999 17.0267 28.2799 17.7468 27.3999 17.7468H25.9332C25.0532 17.7468 24.3333 17.0267 24.3333 16.1467V14.68C24.3333 13.8 25.0532 13.08 25.9332 13.08Z" stroke="#1F1F1F" stroke-width="1.5" stroke-linecap="round" stroke-linejoin="round"/>
<path d="M6.06667 13.08H4.6C3.72 13.08 3 13.8 3 14.68V16.1467C3 17.0267 3.72 17.7468 4.6 17.7468H6.06667C6.94667 17.7468 7.66667 17.0267 7.66667 16.1467V14.68C7.66667 13.8 6.94667 13.08 6.06667 13.08Z" stroke="#1F1F1F" stroke-width="1.5" stroke-linecap="round" stroke-linejoin="round"/>
<path d="M24.72 13.4666L17.6533 6.39998" stroke="#1F1F1F" stroke-width="1.5" stroke-linecap="round" stroke-linejoin="round"/>
<path d="M7.28003 13.4666L14.3467 6.39998" stroke="#1F1F1F" stroke-width="1.5" stroke-linecap="round" stroke-linejoin="round"/>
</svg>
