<svg width="112" height="112" viewBox="0 0 112 112" fill="none" xmlns="http://www.w3.org/2000/svg">
<path d="M66.5 14V32.6667C66.5 33.9043 66.9917 35.0913 67.8668 35.9665C68.742 36.8417 69.929 37.3333 71.1667 37.3333H89.8333M66.5 14H33.8333C31.358 14 28.984 14.9833 27.2337 16.7337C25.4833 18.484 24.5 20.858 24.5 23.3333V88.6667C24.5 91.142 25.4833 93.516 27.2337 95.2663C28.984 97.0167 31.358 98 33.8333 98H80.5C82.9754 98 85.3493 97.0167 87.0997 95.2663C88.85 93.516 89.8333 91.142 89.8333 88.6667V37.3333M66.5 14L89.8333 37.3333" stroke="#182955" stroke-width="1.5" stroke-linecap="round" stroke-linejoin="round"/>
</svg>
