<svg width="32" height="32" viewBox="0 0 32 32" fill="none" xmlns="http://www.w3.org/2000/svg">
<path d="M18.6667 4V9.33333C18.6667 9.68696 18.8072 10.0261 19.0573 10.2761C19.3073 10.5262 19.6465 10.6667 20.0001 10.6667H25.3334M18.6667 4H9.33341C8.62617 4 7.94789 4.28095 7.4478 4.78105C6.9477 5.28115 6.66675 5.95942 6.66675 6.66667V25.3333C6.66675 26.0406 6.9477 26.7189 7.4478 27.219C7.94789 27.719 8.62617 28 9.33341 28H22.6667C23.374 28 24.0523 27.719 24.5524 27.219C25.0525 26.7189 25.3334 26.0406 25.3334 25.3333V10.6667M18.6667 4L25.3334 10.6667M16.0001 14.6667V22.6667M12.0001 18.6667H20.0001" stroke="#1F1F1F" stroke-width="1.5" stroke-linecap="round" stroke-linejoin="round"/>
</svg>
