<svg width="32" height="32" viewBox="0 0 32 32" fill="none" xmlns="http://www.w3.org/2000/svg">
<path d="M12.0001 29.3333H20.0001C26.6667 29.3333 29.3334 26.6667 29.3334 20V12C29.3334 5.33334 26.6667 2.66667 20.0001 2.66667H12.0001C5.33341 2.66667 2.66675 5.33334 2.66675 12V20C2.66675 26.6667 5.33341 29.3333 12.0001 29.3333Z" stroke="#1F1F1F" stroke-width="1.5" stroke-linecap="round" stroke-linejoin="round"/>
<path d="M24.5055 20.3603V10.107C24.5055 9.08031 23.6789 8.33366 22.6655 8.41366H22.6122C20.8256 8.56032 18.1189 9.48034 16.5989 10.427L16.4522 10.5203C16.2122 10.667 15.7988 10.667 15.5455 10.5203L15.3322 10.387C13.8255 9.44034 11.1189 8.54698 9.33219 8.40031C8.31886 8.32031 7.49219 9.08034 7.49219 10.0937V20.3603C7.49219 21.1736 8.15883 21.947 8.97217 22.0403L9.21216 22.0803C11.0522 22.3203 13.9056 23.267 15.5322 24.1603L15.5722 24.1737C15.7989 24.307 16.1722 24.307 16.3855 24.1737C18.0122 23.267 20.8788 22.3337 22.7322 22.0803L23.0122 22.0403C23.8389 21.947 24.5055 21.187 24.5055 20.3603Z" stroke="#1F1F1F" stroke-width="1.5" stroke-linecap="round" stroke-linejoin="round"/>
<path d="M16 10.8008V23.5474" stroke="#1F1F1F" stroke-width="1.5" stroke-linecap="round" stroke-linejoin="round"/>
</svg>
