<svg width="32" height="32" viewBox="0 0 32 32" fill="none" xmlns="http://www.w3.org/2000/svg">
<g clip-path="url(#clip0_809_2253)">
<path d="M18.8399 2.66666H13.1199C10.9599 2.66666 9.53324 4.21333 9.95991 6.09333L10.8799 10.2H21.0666L21.9866 6.09333C22.3999 4.32 20.8799 2.66666 18.8399 2.66666Z" stroke="#1F1F1F" stroke-width="1.5" stroke-linecap="round" stroke-linejoin="round"/>
<path d="M10.8934 10.2L6.9734 13.68C4.78673 15.6267 4.6934 16.9867 6.42673 19.1867L13.3467 27.96C14.8001 29.8 17.1734 29.8 18.6401 27.96L25.5467 19.1867C27.2801 16.9867 27.2801 15.56 25.0001 13.68L21.0801 10.2" stroke="#1F1F1F" stroke-width="1.5" stroke-linecap="round" stroke-linejoin="round"/>
<path d="M15.9866 28.44V22.7067" stroke="#1F1F1F" stroke-width="1.5" stroke-linecap="round" stroke-linejoin="round"/>
</g>
<defs>
<clipPath id="clip0_809_2253">
<rect width="32" height="32" fill="white" transform="matrix(-1 0 0 -1 32 32)"/>
</clipPath>
</defs>
</svg>
