<svg width="32" height="32" viewBox="0 0 32 32" fill="none" xmlns="http://www.w3.org/2000/svg">
<path d="M21.3334 2.66667H10.6667C5.33342 2.66667 2.66675 5.33334 2.66675 10.6667L2.5 21.5C2.5 26.5 5.54535 29.3333 10.667 29.3333H21.3334C26.6667 29.3333 29.3334 26.6667 29.3334 21.3333V10.6667C29.3334 5.33334 26.6667 2.66667 21.3334 2.66667Z" stroke="#1F1F1F" stroke-width="1.5" stroke-linecap="round" stroke-linejoin="round"/>
<path d="M17.2135 10.4533L10.2935 17.3733C10.0268 17.64 9.77347 18.16 9.72014 18.5333L9.34681 21.1733C9.21347 22.1333 9.88013 22.8 10.8401 22.6667L13.4801 22.2933C13.8534 22.24 14.3735 21.9867 14.6401 21.72L21.5601 14.8C22.7468 13.6133 23.3201 12.2267 21.5601 10.4667C19.8001 8.69334 18.4135 9.25334 17.2135 10.4533Z" stroke="#1F1F1F" stroke-width="1.5" stroke-miterlimit="10" stroke-linecap="round" stroke-linejoin="round"/>
<path d="M16.2266 11.44C16.8132 13.5333 18.4532 15.1867 20.5599 15.7733" stroke="#1F1F1F" stroke-width="1.5" stroke-miterlimit="10" stroke-linecap="round" stroke-linejoin="round"/>
</svg>
