<svg width="28" height="28" viewBox="0 0 28 28" fill="none" xmlns="http://www.w3.org/2000/svg">
<path d="M24.5 6.97667C20.615 6.59167 16.7067 6.39333 12.81 6.39333C10.5 6.39333 8.19 6.51 5.88 6.74333L3.5 6.97667" stroke="#1F1F1F" stroke-width="1.5" stroke-linecap="round" stroke-linejoin="round"/>
<path d="M9.91675 5.79834L10.1734 4.27C10.3601 3.16167 10.5001 2.33334 12.4717 2.33334H15.5284C17.5001 2.33334 17.6517 3.20834 17.8267 4.28167L18.0834 5.79834" stroke="#1F1F1F" stroke-width="1.5" stroke-linecap="round" stroke-linejoin="round"/>
<path d="M21.9921 10.6629L21.2338 22.4113C21.1055 24.2429 21.0005 25.6663 17.7455 25.6663H10.2555C7.00046 25.6663 6.89546 24.2429 6.76712 22.4113L6.00879 10.6629" stroke="#1F1F1F" stroke-width="1.5" stroke-linecap="round" stroke-linejoin="round"/>
<path d="M12.0518 19.25H15.9368" stroke="#1F1F1F" stroke-width="1.5" stroke-linecap="round" stroke-linejoin="round"/>
<path d="M11.0833 14.5833H16.9166" stroke="#1F1F1F" stroke-width="1.5" stroke-linecap="round" stroke-linejoin="round"/>
</svg>
